<svg width="144" height="17" viewBox="0 0 144 17" fill="none" xmlns="http://www.w3.org/2000/svg">
<path d="M13.168 12.7108C13.1973 12.5495 13.322 12.4688 13.542 12.4688C13.7767 12.4688 13.894 12.5348 13.894 12.6668L13.718 15.7248C13.718 15.8421 13.6007 15.9008 13.366 15.9008C13.146 15.9008 13.036 15.8421 13.036 15.7248V15.1968C11.5987 15.7688 10.1907 16.0548 8.812 16.0548C6.28933 16.0548 4.192 15.4241 2.52 14.1628C0.848 12.8868 0.0120001 11.1268 0.0120001 8.8828C0.0120001 7.19613 0.452 5.72213 1.332 4.4608C2.212 3.1848 3.32667 2.24613 4.676 1.6448C6.02533 1.0288 7.404 0.720798 8.812 0.720798C10.2347 0.720798 11.5033 1.0068 12.618 1.5788V1.0728C12.618 0.940798 12.7207 0.874798 12.926 0.874798C13.146 0.874798 13.256 0.940798 13.256 1.0728C13.256 2.2608 13.3293 3.34613 13.476 4.3288C13.5053 4.47546 13.3953 4.5488 13.146 4.5488C12.8967 4.5488 12.7647 4.47546 12.75 4.3288L12.574 3.2948C11.43 2.2388 10.0587 1.7108 8.46 1.7108C6.876 1.7108 5.52667 2.29746 4.412 3.4708C3.29733 4.62947 2.74 6.27947 2.74 8.4208C2.74 10.5475 3.32667 12.1901 4.5 13.3488C5.688 14.4928 7.16933 15.0648 8.944 15.0648C10.3813 15.0648 11.7453 14.6248 13.036 13.7448L13.168 12.7108ZM16.0844 15.7688L14.3464 15.8128C14.2437 15.8128 14.1924 15.7175 14.1924 15.5268C14.1924 15.3361 14.2437 15.2408 14.3464 15.2408H15.0504C15.2117 15.2408 15.329 15.1748 15.4024 15.0428C15.7397 14.4855 16.4144 13.0041 17.4264 10.5988C18.4384 8.1788 19.1644 6.34547 19.6044 5.0988C19.663 4.9668 19.8024 4.9008 20.0224 4.9008C20.257 4.9008 20.4037 4.97413 20.4624 5.1208C20.6384 5.85413 21.1517 7.24013 22.0024 9.2788C22.8677 11.3175 23.623 13.0188 24.2684 14.3828C24.4444 14.7348 24.6057 14.9621 24.7524 15.0648C24.899 15.1675 25.1264 15.2188 25.4344 15.2188C25.5224 15.2188 25.5664 15.3215 25.5664 15.5268C25.5664 15.7175 25.5297 15.8128 25.4564 15.8128L23.3444 15.7688L20.9684 15.8128C20.8804 15.8128 20.8364 15.7175 20.8364 15.5268C20.8364 15.3361 20.8804 15.2408 20.9684 15.2408H22.0244C22.1857 15.2408 22.2664 15.1748 22.2664 15.0428C22.2664 15.0281 21.8557 13.8988 21.0344 11.6548H17.9764C17.2577 13.4295 16.8984 14.4708 16.8984 14.7788C16.8984 15.0721 16.9864 15.2188 17.1624 15.2188H18.0644C18.1817 15.2188 18.2404 15.3215 18.2404 15.5268C18.2404 15.7175 18.1964 15.8128 18.1084 15.8128L16.0844 15.7688ZM20.7484 10.9068C20.7044 10.7748 20.323 9.66013 19.6044 7.5628H19.5384C19.1864 8.5748 18.7684 9.68947 18.2844 10.9068H20.7484ZM26.6542 5.1428L28.3922 5.1868C28.5535 5.1868 28.6928 5.1868 28.8102 5.1868L31.0982 5.1428C31.2008 5.1428 31.2522 5.2528 31.2522 5.4728C31.2522 5.67813 31.1935 5.7808 31.0762 5.7808H30.0642C29.8735 5.7808 29.7782 5.89813 29.7782 6.1328V13.4148C29.7782 14.5148 29.9248 15.0648 30.2182 15.0648H30.7902C32.4035 15.0355 33.5182 14.8081 34.1342 14.3828L34.2442 13.5248C34.2735 13.4368 34.3468 13.3928 34.4642 13.3928C34.5962 13.3928 34.6842 13.3928 34.7282 13.3928C34.8162 13.4221 34.8602 13.4661 34.8602 13.5248C34.7722 14.1408 34.7282 15.0061 34.7282 16.1208C34.7282 16.1941 34.6255 16.2308 34.4202 16.2308C34.2295 16.2308 34.1342 16.1941 34.1342 16.1208V15.7688H30.3502L26.6102 15.8128C26.5075 15.8128 26.4562 15.7028 26.4562 15.4828C26.4562 15.2628 26.5002 15.1528 26.5882 15.1528H27.5782C27.7395 15.1528 27.8348 15.1235 27.8642 15.0648C27.8935 14.9915 27.9082 14.8081 27.9082 14.5148V7.5848C27.9082 6.41147 27.7615 5.8248 27.4682 5.8248H26.6762C26.5002 5.8248 26.4122 5.7148 26.4122 5.4948C26.4122 5.26013 26.4928 5.1428 26.6542 5.1428ZM36.3221 5.1428L38.0601 5.1868C38.2215 5.1868 38.3608 5.1868 38.4781 5.1868L40.7661 5.1428C40.8688 5.1428 40.9201 5.2528 40.9201 5.4728C40.9201 5.67813 40.8615 5.7808 40.7441 5.7808H39.7321C39.5415 5.7808 39.4461 5.89813 39.4461 6.1328V13.4148C39.4461 14.5148 39.5928 15.0648 39.8861 15.0648H40.4581C42.0715 15.0355 43.1861 14.8081 43.8021 14.3828L43.9121 13.5248C43.9415 13.4368 44.0148 13.3928 44.1321 13.3928C44.2641 13.3928 44.3521 13.3928 44.3961 13.3928C44.4841 13.4221 44.5281 13.4661 44.5281 13.5248C44.4401 14.1408 44.3961 15.0061 44.3961 16.1208C44.3961 16.1941 44.2935 16.2308 44.0881 16.2308C43.8975 16.2308 43.8021 16.1941 43.8021 16.1208V15.7688H40.0181L36.2781 15.8128C36.1755 15.8128 36.1241 15.7028 36.1241 15.4828C36.1241 15.2628 36.1681 15.1528 36.2561 15.1528H37.2461C37.4075 15.1528 37.5028 15.1235 37.5321 15.0648C37.5615 14.9915 37.5761 14.8081 37.5761 14.5148V7.5848C37.5761 6.41147 37.4295 5.8248 37.1361 5.8248H36.3441C36.1681 5.8248 36.0801 5.7148 36.0801 5.4948C36.0801 5.26013 36.1608 5.1428 36.3221 5.1428ZM45.9901 5.1428L47.7281 5.1868C47.8894 5.1868 48.0288 5.1868 48.1461 5.1868L50.4341 5.1428C50.5368 5.1428 50.5881 5.2528 50.5881 5.4728C50.5881 5.67813 50.5294 5.7808 50.4121 5.7808H49.4001C49.2094 5.7808 49.1141 5.89813 49.1141 6.1328V13.4148C49.1141 14.5295 49.2608 15.0868 49.5541 15.0868H50.6541C50.7714 15.0868 50.8301 15.2041 50.8301 15.4388C50.8301 15.6588 50.7861 15.7688 50.6981 15.7688L48.1461 15.7468L45.9461 15.8128C45.8434 15.8128 45.7921 15.7028 45.7921 15.4828C45.7921 15.2628 45.8361 15.1528 45.9241 15.1528H46.9141C47.0754 15.1528 47.1708 15.1235 47.2001 15.0648C47.2294 14.9915 47.2441 14.8081 47.2441 14.5148V7.5848C47.2441 6.41147 47.0974 5.8248 46.8041 5.8248H46.0121C45.8361 5.8248 45.7481 5.7148 45.7481 5.4948C45.7481 5.26013 45.8288 5.1428 45.9901 5.1428ZM58.9622 5.0988L59.4242 7.5188C59.4242 7.63613 59.3362 7.6948 59.1602 7.6948C58.9842 7.6948 58.8742 7.63613 58.8302 7.5188C58.6395 6.97613 58.3389 6.5288 57.9282 6.1768C57.5175 5.8248 57.0702 5.6488 56.5862 5.6488C56.1169 5.63413 55.6989 5.76613 55.3322 6.0448C54.9802 6.32347 54.8042 6.66813 54.8042 7.0788C54.8042 7.4748 54.9215 7.84146 55.1562 8.1788C55.4055 8.50147 55.7062 8.78013 56.0582 9.0148C56.4102 9.24947 56.7989 9.5208 57.2242 9.8288C57.6495 10.1221 58.0382 10.4155 58.3902 10.7088C58.7422 11.0021 59.0355 11.3835 59.2702 11.8528C59.5195 12.3221 59.6442 12.8281 59.6442 13.3708C59.6442 14.2215 59.2702 14.8815 58.5222 15.3508C57.7742 15.8201 56.9602 16.0548 56.0802 16.0548C55.2149 16.0548 54.4155 15.8861 53.6822 15.5488C53.6822 15.7248 53.6675 15.8348 53.6382 15.8788C53.6235 15.9228 53.5502 15.9521 53.4182 15.9668H53.3302C53.2129 15.9668 53.1469 15.9081 53.1322 15.7908C53.1029 15.4388 53.0442 14.9548 52.9562 14.3388C52.8682 13.7228 52.8022 13.2241 52.7582 12.8428C52.7582 12.6961 52.8462 12.6228 53.0222 12.6228C53.2129 12.6228 53.3155 12.6595 53.3302 12.7328C53.5355 13.4515 53.8949 14.0748 54.4082 14.6028C54.9215 15.1161 55.4569 15.3728 56.0142 15.3728C56.5715 15.3728 57.0335 15.2408 57.4002 14.9768C57.7669 14.6981 57.9502 14.3168 57.9502 13.8328C57.9502 13.3488 57.7815 12.9088 57.4442 12.5128C57.1215 12.1021 56.7255 11.7355 56.2562 11.4128C55.7869 11.0901 55.3175 10.7675 54.8482 10.4448C54.3789 10.1075 53.9755 9.6968 53.6382 9.2128C53.3155 8.7288 53.1542 8.2008 53.1542 7.6288C53.1542 6.80747 53.4989 6.1548 54.1882 5.6708C54.8922 5.1868 55.7209 4.9448 56.6742 4.9448C57.2169 4.9448 57.7962 5.04747 58.4122 5.2528C58.3829 5.1648 58.3682 5.06213 58.3682 4.9448C58.3682 4.8128 58.4342 4.7468 58.5662 4.7468C58.7129 4.7468 58.8082 4.7688 58.8522 4.8128C58.8962 4.84213 58.9329 4.93747 58.9622 5.0988ZM80.4816 0.984798L83.5616 0.918799C83.679 0.918799 83.7376 1.04346 83.7376 1.2928C83.7376 1.54213 83.679 1.6668 83.5616 1.6668H82.6156C82.249 1.6668 82.007 1.74013 81.8896 1.8868C81.7723 2.0188 81.7136 2.2828 81.7136 2.6788V13.1068C81.7136 14.3975 81.8676 15.0428 82.1756 15.0428H83.4516C83.569 15.0428 83.6276 15.1675 83.6276 15.4168C83.6276 15.6515 83.569 15.7688 83.4516 15.7688L80.6796 15.7468L77.5996 15.8128C77.4823 15.8128 77.4236 15.6881 77.4236 15.4388C77.4236 15.1895 77.4823 15.0648 77.5996 15.0648H78.5456C78.9123 15.0648 79.1543 14.9988 79.2716 14.8668C79.389 14.7201 79.4476 14.4488 79.4476 14.0528V8.8608H71.5936V13.1068C71.5936 14.3975 71.7476 15.0428 72.0556 15.0428H73.3316C73.449 15.0428 73.5076 15.1675 73.5076 15.4168C73.5076 15.6515 73.449 15.7688 73.3316 15.7688L70.5596 15.7468L67.4796 15.8128C67.3623 15.8128 67.3036 15.6881 67.3036 15.4388C67.3036 15.1895 67.3623 15.0648 67.4796 15.0648H68.4256C68.7923 15.0648 69.0343 14.9988 69.1516 14.8668C69.269 14.7201 69.3276 14.4488 69.3276 14.0528V3.6248C69.3276 2.33413 69.1736 1.6888 68.8656 1.6888H67.5896C67.4723 1.6888 67.4136 1.57146 67.4136 1.3368C67.4136 1.08746 67.4723 0.962798 67.5896 0.962798L70.3616 0.984798L73.4416 0.918799C73.559 0.918799 73.6176 1.04346 73.6176 1.2928C73.6176 1.54213 73.559 1.6668 73.4416 1.6668H72.4956C72.129 1.6668 71.887 1.74013 71.7696 1.8868C71.6523 2.0188 71.5936 2.2828 71.5936 2.6788V7.9588H79.4476V3.6248C79.4476 2.33413 79.2936 1.6888 78.9856 1.6888H77.7096C77.5923 1.6888 77.5336 1.57146 77.5336 1.3368C77.5336 1.08746 77.5923 0.962798 77.7096 0.962798L80.4816 0.984798ZM96.4916 15.7468L93.6976 15.8128C93.5656 15.8128 93.4996 15.6881 93.4996 15.4388C93.4996 15.1895 93.5656 15.0648 93.6976 15.0648H94.9516C95.2596 15.0648 95.4136 14.9401 95.4136 14.6908C95.4136 14.5881 95.135 13.7155 94.5776 12.0728C94.0203 10.4155 93.6756 9.38147 93.5436 8.9708H89.5616C88.5203 12.2855 87.9996 14.1995 87.9996 14.7128C87.9996 14.9328 88.0436 15.0428 88.1316 15.0428H89.7156C89.877 15.0428 89.9576 15.1675 89.9576 15.4168C89.9576 15.6515 89.8623 15.7688 89.6716 15.7688L86.8336 15.7468L84.3916 15.8128C84.2596 15.8128 84.1936 15.6881 84.1936 15.4388C84.1936 15.1895 84.2596 15.0648 84.3916 15.0648H85.4916C85.8143 15.0648 86.0563 14.9035 86.2176 14.5808C86.8336 13.2461 87.611 11.2588 88.5496 8.6188C89.503 5.9788 90.1483 4.23347 90.4856 3.3828C90.8376 2.51746 91.0136 2.0408 91.0136 1.9528C91.0136 1.85013 90.9843 1.74013 90.9256 1.6228C90.867 1.50547 90.8376 1.43213 90.8376 1.4028C90.8376 1.28546 90.9403 1.2268 91.1456 1.2268C91.3656 1.2268 91.5636 1.17546 91.7396 1.0728C91.9303 0.970132 92.055 0.852799 92.1136 0.720798C92.275 0.398132 92.4216 0.236798 92.5536 0.236798C92.6123 0.236798 92.715 0.456798 92.8616 0.896798L97.2836 12.8428C97.841 14.3095 98.2296 15.0428 98.4496 15.0428H99.2416C99.3883 15.0428 99.4616 15.1675 99.4616 15.4168C99.4616 15.6515 99.403 15.7688 99.2856 15.7688L96.4916 15.7468ZM91.5636 3.2508C91.109 4.42413 90.537 6.03747 89.8476 8.0908H93.2356C92.253 5.11346 91.725 3.50013 91.6516 3.2508H91.5636ZM111.304 1.0068L113.768 0.962798C113.885 0.962798 113.944 1.08013 113.944 1.3148C113.944 1.5348 113.885 1.6448 113.768 1.6448H112.712C112.389 1.6448 112.125 1.8868 111.92 2.3708C111.333 3.74946 110.372 6.12546 109.038 9.4988C107.718 12.8721 106.838 15.0501 106.398 16.0328C106.339 16.1648 106.178 16.2308 105.914 16.2308C105.65 16.2308 105.488 16.1648 105.43 16.0328C104.11 12.9528 102.364 8.36947 100.194 2.2828C100.062 1.87213 99.849 1.6668 99.5556 1.6668H98.7636C98.6756 1.6668 98.6316 1.54946 98.6316 1.3148C98.6316 1.08013 98.6756 0.962798 98.7636 0.962798L101.184 1.0068L104.506 0.962798C104.652 0.962798 104.726 1.08013 104.726 1.3148C104.726 1.5348 104.652 1.6448 104.506 1.6448H103.23C102.775 1.6448 102.636 1.96013 102.812 2.5908C102.988 3.22146 103.281 4.18946 103.692 5.4948C104.117 6.78547 104.623 8.31813 105.21 10.0928C105.811 11.8675 106.2 13.0261 106.376 13.5688H106.464C108.913 6.77813 110.138 2.9648 110.138 2.1288C110.138 1.8208 110.072 1.6668 109.94 1.6668H108.488C108.37 1.6668 108.312 1.54946 108.312 1.3148C108.312 1.08013 108.37 0.962798 108.488 0.962798L111.304 1.0068ZM114.469 0.962798L117.241 1.0068H123.621V0.544798C123.621 0.412798 123.723 0.346798 123.929 0.346798C124.149 0.346798 124.259 0.412798 124.259 0.544798C124.259 2.01147 124.332 3.12613 124.479 3.8888C124.508 4.00613 124.405 4.0648 124.171 4.0648C123.936 4.0648 123.804 4.00613 123.775 3.8888C123.54 2.9648 123.261 2.42946 122.939 2.2828C122.161 1.98946 120.915 1.83547 119.199 1.8208C118.905 1.83547 118.707 1.91613 118.605 2.0628C118.517 2.20946 118.473 2.46613 118.473 2.8328V8.0248C119.382 8.01013 120.269 7.96613 121.135 7.8928C122 7.81947 122.469 7.7608 122.543 7.7168L122.763 6.4188C122.777 6.31613 122.865 6.2648 123.027 6.2648C123.335 6.2648 123.474 6.3308 123.445 6.4628C123.371 7.0348 123.335 7.68013 123.335 8.3988C123.335 9.11747 123.371 9.7628 123.445 10.3348C123.474 10.4521 123.364 10.5108 123.115 10.5108C122.88 10.5108 122.763 10.4668 122.763 10.3788L122.521 9.0588C122.433 9.0148 121.963 8.95613 121.113 8.8828C120.277 8.7948 119.397 8.74347 118.473 8.7288V12.9528C118.473 14.2435 118.627 14.8888 118.935 14.8888H120.057C122.33 14.8595 123.885 14.5515 124.721 13.9648L124.875 12.7548C124.904 12.6375 125.029 12.5788 125.249 12.5788C125.483 12.5788 125.601 12.6228 125.601 12.7108L125.403 16.2528C125.403 16.3555 125.285 16.4068 125.051 16.4068C124.831 16.4068 124.721 16.3555 124.721 16.2528V15.7688H119.287L114.359 15.8128C114.241 15.8128 114.183 15.6881 114.183 15.4388C114.183 15.1895 114.241 15.0648 114.359 15.0648H115.305C115.671 15.0648 115.913 14.9988 116.031 14.8668C116.148 14.7201 116.207 14.4488 116.207 14.0528V3.6248C116.207 2.33413 116.053 1.6888 115.745 1.6888H114.469C114.351 1.6888 114.293 1.57146 114.293 1.3368C114.293 1.08746 114.351 0.962798 114.469 0.962798ZM141.182 1.0068L143.778 0.940798C143.91 0.940798 143.976 1.06547 143.976 1.3148C143.976 1.54946 143.91 1.6668 143.778 1.6668H142.744C142.451 1.6668 142.26 1.7328 142.172 1.8648C141.835 2.36346 141.652 7.08613 141.622 16.0328C141.593 16.1355 141.476 16.1868 141.27 16.1868C141.065 16.1868 140.911 16.1355 140.808 16.0328C136.526 10.9435 133.152 6.9028 130.688 3.9108H130.6C130.659 9.24947 130.703 12.4395 130.732 13.4808C130.762 14.5221 130.916 15.0428 131.194 15.0428H132.404C132.536 15.0428 132.602 15.1675 132.602 15.4168C132.602 15.6515 132.536 15.7688 132.404 15.7688L130.072 15.7468L127.454 15.8128C127.352 15.8128 127.3 15.6881 127.3 15.4388C127.3 15.1895 127.352 15.0648 127.454 15.0648H128.18C128.518 15.0648 128.76 15.0281 128.906 14.9548C129.053 14.8668 129.134 14.7055 129.148 14.4708C129.442 11.1708 129.588 7.22547 129.588 2.6348L129.434 2.4588C129.141 2.12147 128.877 1.9088 128.642 1.8208C128.422 1.71813 128.004 1.6668 127.388 1.6668C127.3 1.6668 127.256 1.54946 127.256 1.3148C127.256 1.08013 127.3 0.962798 127.388 0.962798L131.37 1.0068C136.592 7.54813 139.628 11.3908 140.478 12.5348H140.566C140.478 6.71213 140.405 3.4488 140.346 2.7448C140.288 2.0408 140.119 1.6888 139.84 1.6888H138.784C138.652 1.6888 138.586 1.57146 138.586 1.3368C138.586 1.08746 138.652 0.962798 138.784 0.962798L141.182 1.0068Z" fill="#ABC034"/>
</svg>
